<svg width="72" height="30" viewBox="0 0 72 30" fill="none" xmlns="http://www.w3.org/2000/svg">
<rect width="72" height="30" rx="4" fill="#DFE1E2"/>
<path d="M16.0005 14.0577L19.3003 10.7578L20.2431 11.7006L16.9433 15.0005L20.2431 18.3003L19.3003 19.2431L16.0005 15.9433L12.7006 19.2431L11.7578 18.3003L15.0577 15.0005L11.7578 11.7006L12.7006 10.7578L16.0005 14.0577Z" fill="#53575A"/>
<path d="M31.796 20.168C30.3307 20.168 29.1033 19.678 28.114 18.698C27.134 17.7087 26.644 16.486 26.644 15.03C26.644 13.574 27.134 12.356 28.114 11.376C29.1033 10.3867 30.3307 9.892 31.796 9.892C32.9907 9.892 34.022 10.228 34.89 10.9C35.7673 11.572 36.3227 12.384 36.556 13.336H35.184C34.9507 12.692 34.526 12.1647 33.91 11.754C33.3033 11.334 32.5987 11.124 31.796 11.124C30.6947 11.124 29.7753 11.502 29.038 12.258C28.31 13.0047 27.946 13.9287 27.946 15.03C27.946 16.1313 28.31 17.06 29.038 17.816C29.7753 18.5627 30.6947 18.936 31.796 18.936C32.5987 18.936 33.3033 18.7307 33.91 18.32C34.526 17.9 34.9507 17.368 35.184 16.724H36.556C36.3227 17.676 35.7673 18.488 34.89 19.16C34.022 19.832 32.9907 20.168 31.796 20.168ZM38.1672 20V9.5H39.3712V20H38.1672ZM44.7615 20.14C43.7069 20.14 42.8295 19.79 42.1295 19.09C41.4389 18.3807 41.0935 17.5173 41.0935 16.5C41.0935 15.4827 41.4389 14.624 42.1295 13.924C42.8295 13.2147 43.7069 12.86 44.7615 12.86C45.8069 12.86 46.6749 13.2147 47.3655 13.924C48.0655 14.624 48.4155 15.4827 48.4155 16.5C48.4155 17.5173 48.0655 18.3807 47.3655 19.09C46.6749 19.79 45.8069 20.14 44.7615 20.14ZM42.9975 18.292C43.4549 18.7773 44.0429 19.02 44.7615 19.02C45.4802 19.02 46.0635 18.7773 46.5115 18.292C46.9595 17.8067 47.1835 17.2093 47.1835 16.5C47.1835 15.7907 46.9595 15.1933 46.5115 14.708C46.0635 14.2227 45.4802 13.98 44.7615 13.98C44.0429 13.98 43.4549 14.2227 42.9975 14.708C42.5495 15.1933 42.3255 15.7907 42.3255 16.5C42.3255 17.2093 42.5495 17.8067 42.9975 18.292ZM52.3978 20.14C51.6138 20.14 50.9558 19.9487 50.4238 19.566C49.9011 19.1833 49.6118 18.6513 49.5558 17.97H50.7878C50.8624 18.362 51.0491 18.6513 51.3478 18.838C51.6558 19.0247 52.0104 19.118 52.4118 19.118C52.8131 19.118 53.1351 19.0387 53.3778 18.88C53.6298 18.7213 53.7558 18.4927 53.7558 18.194C53.7558 17.914 53.6624 17.6853 53.4758 17.508C53.2984 17.3307 53.0044 17.186 52.5938 17.074L51.5858 16.808C50.3818 16.4907 49.7798 15.8047 49.7798 14.75C49.7798 14.1807 50.0038 13.7233 50.4518 13.378C50.9091 13.0327 51.4924 12.86 52.2018 12.86C52.9204 12.86 53.5084 13.0513 53.9658 13.434C54.4324 13.8073 54.6938 14.2833 54.7498 14.862H53.5458C53.4524 14.554 53.2844 14.3113 53.0418 14.134C52.8084 13.9567 52.5284 13.868 52.2018 13.868C51.8564 13.868 51.5671 13.9473 51.3338 14.106C51.1098 14.2647 50.9978 14.4747 50.9978 14.736C50.9978 14.988 51.0818 15.1933 51.2498 15.352C51.4178 15.5107 51.6884 15.6413 52.0618 15.744L53.1818 16.038C54.3764 16.3367 54.9738 17.0273 54.9738 18.11C54.9738 18.782 54.7358 19.2907 54.2598 19.636C53.7838 19.972 53.1631 20.14 52.3978 20.14ZM59.6609 20.14C58.6436 20.14 57.7989 19.7947 57.1269 19.104C56.4643 18.4133 56.1329 17.5453 56.1329 16.5C56.1329 15.4453 56.4549 14.5773 57.0989 13.896C57.7523 13.2053 58.6156 12.86 59.6889 12.86C60.7716 12.86 61.6209 13.2427 62.2369 14.008C62.8529 14.7733 63.1236 15.7113 63.0489 16.822H57.3509C57.3696 17.4567 57.6029 17.9887 58.0509 18.418C58.4989 18.838 59.0403 19.048 59.6749 19.048C60.6269 19.048 61.3036 18.656 61.7049 17.872H62.9369C62.7596 18.5253 62.3816 19.0667 61.8029 19.496C61.2243 19.9253 60.5103 20.14 59.6609 20.14ZM61.0329 14.428C60.6503 14.092 60.1883 13.924 59.6469 13.924C59.1056 13.924 58.6203 14.0873 58.1909 14.414C57.7709 14.7407 57.5096 15.226 57.4069 15.87H61.7749C61.6629 15.2353 61.4156 14.7547 61.0329 14.428Z" fill="#53575A"/>
</svg>
