<svg width="80" height="81" viewBox="0 0 80 81" fill="none" xmlns="http://www.w3.org/2000/svg">
<g filter="url(#filter0_ii_1_3218)">
<path fill-rule="evenodd" clip-rule="evenodd" d="M14.1333 7.16663C13.5074 7.16663 13 7.67403 13 8.29996V72.7C13 73.3259 13.5074 73.8333 14.1333 73.8333H65.8667C66.4926 73.8333 67 73.3259 67 72.7L67 23.8333L50.3333 7.16663H14.1333Z" fill="#32BD7A"/>
</g>
<g filter="url(#filter1_dd_1_3218)">
<path d="M32.5167 57.1667L39.9813 46.4525L47.4846 57.1667H51.0417L41.7071 44.1767L50.3696 32.1667H46.8125L39.9813 41.9004L33.1834 32.1667H29.6275L38.2205 44.1767L28.9584 57.1667H32.5167Z" fill="white"/>
</g>
<path d="M65.4364 22.2708H51.8959L67 37.375V23.8333L65.4364 22.2708Z" fill="url(#paint0_linear_1_3218)"/>
<path d="M51.4667 23.8333L67 23.8333L50.3333 7.16665L50.3333 22.7C50.3333 23.3259 50.8407 23.8333 51.4667 23.8333Z" fill="#EBFFEC"/>
<defs>
<filter id="filter0_ii_1_3218" x="13" y="7.09579" width="54" height="66.8083" filterUnits="userSpaceOnUse" color-interpolation-filters="sRGB">
<feFlood flood-opacity="0" result="BackgroundImageFix"/>
<feBlend mode="normal" in="SourceGraphic" in2="BackgroundImageFix" result="shape"/>
<feColorMatrix in="SourceAlpha" type="matrix" values="0 0 0 0 0 0 0 0 0 0 0 0 0 0 0 0 0 0 127 0" result="hardAlpha"/>
<feOffset dy="-0.141667"/>
<feGaussianBlur stdDeviation="0.0354167"/>
<feComposite in2="hardAlpha" operator="arithmetic" k2="-1" k3="1"/>
<feColorMatrix type="matrix" values="0 0 0 0 0 0 0 0 0 0 0 0 0 0 0 0 0 0 0.3 0"/>
<feBlend mode="normal" in2="shape" result="effect1_innerShadow_1_3218"/>
<feColorMatrix in="SourceAlpha" type="matrix" values="0 0 0 0 0 0 0 0 0 0 0 0 0 0 0 0 0 0 127 0" result="hardAlpha"/>
<feOffset dy="0.141667"/>
<feGaussianBlur stdDeviation="0.0354167"/>
<feComposite in2="hardAlpha" operator="arithmetic" k2="-1" k3="1"/>
<feColorMatrix type="matrix" values="0 0 0 0 1 0 0 0 0 1 0 0 0 0 1 0 0 0 0.3 0"/>
<feBlend mode="normal" in2="effect1_innerShadow_1_3218" result="effect2_innerShadow_1_3218"/>
</filter>
<filter id="filter1_dd_1_3218" x="27.9584" y="31.1667" width="31.0834" height="36" filterUnits="userSpaceOnUse" color-interpolation-filters="sRGB">
<feFlood flood-opacity="0" result="BackgroundImageFix"/>
<feColorMatrix in="SourceAlpha" type="matrix" values="0 0 0 0 0 0 0 0 0 0 0 0 0 0 0 0 0 0 127 0" result="hardAlpha"/>
<feOffset dx="4" dy="6"/>
<feGaussianBlur stdDeviation="2"/>
<feColorMatrix type="matrix" values="0 0 0 0 0 0 0 0 0 0 0 0 0 0 0 0 0 0 0.1 0"/>
<feBlend mode="normal" in2="BackgroundImageFix" result="effect1_dropShadow_1_3218"/>
<feColorMatrix in="SourceAlpha" type="matrix" values="0 0 0 0 0 0 0 0 0 0 0 0 0 0 0 0 0 0 127 0" result="hardAlpha"/>
<feOffset/>
<feGaussianBlur stdDeviation="0.5"/>
<feColorMatrix type="matrix" values="0 0 0 0 0 0 0 0 0 0 0 0 0 0 0 0 0 0 0.4 0"/>
<feBlend mode="normal" in2="effect1_dropShadow_1_3218" result="effect2_dropShadow_1_3218"/>
<feBlend mode="normal" in="SourceGraphic" in2="effect2_dropShadow_1_3218" result="shape"/>
</filter>
<linearGradient id="paint0_linear_1_3218" x1="55.2813" y1="18.8854" x2="70.3855" y2="33.9896" gradientUnits="userSpaceOnUse">
<stop stop-opacity="0.2"/>
<stop offset="1" stop-opacity="0"/>
</linearGradient>
</defs>
</svg>
