<svg width="80" height="81" viewBox="0 0 80 81" fill="none" xmlns="http://www.w3.org/2000/svg">
<g filter="url(#filter0_ii_1_1995)">
<path fill-rule="evenodd" clip-rule="evenodd" d="M14.2672 7.16833C13.5676 7.16833 13.0005 7.73544 13.0005 8.43501V72.5683C13.0005 73.2679 13.5676 73.835 14.2672 73.835H65.7338C66.4334 73.835 67.0005 73.2679 67.0005 72.5683V23.8349L50.3339 7.16833H14.2672Z" fill="#FA4E4E"/>
</g>
<path d="M50.8271 52.0654C48.5775 51.8983 46.4117 51.0629 44.6621 49.5592C41.2463 50.3108 37.9967 51.3967 34.7475 52.7337C32.165 57.3283 29.7488 59.6675 27.6658 59.6675C27.2492 59.6675 26.7496 59.5842 26.4162 59.3333C25.4996 58.9158 25 57.9967 25 57.0779C25 56.3258 25.1667 54.2375 33.0812 50.8121C34.9146 47.4704 36.3304 44.0454 37.4971 40.4533C36.4971 38.4483 34.3312 33.5192 35.8304 31.0133C36.3304 30.0942 37.3304 29.5929 38.4137 29.6767C39.2467 29.6767 40.0796 30.0942 40.5796 30.7625C41.6629 32.2662 41.5796 35.4408 40.1629 40.1192C41.4963 42.6218 43.2426 44.8813 45.3283 46.8025C47.0783 46.4679 48.8275 46.2175 50.5771 46.2175C54.4929 46.3008 55.0762 48.1387 54.9929 49.225C54.9929 52.0654 52.2433 52.0654 50.8271 52.0654ZM27.4996 57.2446L27.7496 57.1612C28.9158 56.7437 29.8321 55.9083 30.4987 54.8221C29.2487 55.3233 28.2492 56.1587 27.4996 57.245V57.2446ZM38.58 32.1829H38.33C38.2467 32.1829 38.08 32.1829 37.9967 32.2662C37.6633 33.6862 37.9133 35.19 38.4967 36.5267C38.9967 35.1067 38.9967 33.6029 38.58 32.1829ZM39.1633 44.2962L39.08 44.4629L38.9967 44.3796C38.2467 46.3012 37.4133 48.2225 36.4971 50.0604L36.6637 49.9771V50.1437C38.5165 49.472 40.4085 48.914 42.3292 48.4729L42.2458 48.3896H42.4958C41.2458 47.1362 40.0796 45.7162 39.1633 44.2962ZM50.4937 48.7237C49.7437 48.7237 49.0775 48.7237 48.3275 48.8904C49.1608 49.3083 49.9942 49.4754 50.8271 49.5592C51.4104 49.6425 51.9937 49.5592 52.4933 49.3921C52.4933 49.1412 52.16 48.7237 50.4937 48.7237Z" fill="white"/>
<path d="M65.4365 22.2699L51.896 22.2699L67.0002 37.3741L67.0002 23.8324L65.4365 22.2699Z" fill="url(#paint0_linear_1_1995)"/>
<path d="M51.6 23.8324L67 23.8324L50.3333 7.16573L50.3333 22.5657C50.3333 23.2653 50.9004 23.8324 51.6 23.8324Z" fill="#FDB8B8"/>
<defs>
<filter id="filter0_ii_1_1995" x="13.0005" y="7.08917" width="54" height="66.825" filterUnits="userSpaceOnUse" color-interpolation-filters="sRGB">
<feFlood flood-opacity="0" result="BackgroundImageFix"/>
<feBlend mode="normal" in="SourceGraphic" in2="BackgroundImageFix" result="shape"/>
<feColorMatrix in="SourceAlpha" type="matrix" values="0 0 0 0 0 0 0 0 0 0 0 0 0 0 0 0 0 0 127 0" result="hardAlpha"/>
<feOffset dy="-0.158333"/>
<feGaussianBlur stdDeviation="0.0395833"/>
<feComposite in2="hardAlpha" operator="arithmetic" k2="-1" k3="1"/>
<feColorMatrix type="matrix" values="0 0 0 0 0 0 0 0 0 0 0 0 0 0 0 0 0 0 0.3 0"/>
<feBlend mode="normal" in2="shape" result="effect1_innerShadow_1_1995"/>
<feColorMatrix in="SourceAlpha" type="matrix" values="0 0 0 0 0 0 0 0 0 0 0 0 0 0 0 0 0 0 127 0" result="hardAlpha"/>
<feOffset dy="0.158333"/>
<feGaussianBlur stdDeviation="0.0395833"/>
<feComposite in2="hardAlpha" operator="arithmetic" k2="-1" k3="1"/>
<feColorMatrix type="matrix" values="0 0 0 0 1 0 0 0 0 1 0 0 0 0 1 0 0 0 0.3 0"/>
<feBlend mode="normal" in2="effect1_innerShadow_1_1995" result="effect2_innerShadow_1_1995"/>
</filter>
<linearGradient id="paint0_linear_1_1995" x1="55.2814" y1="18.8845" x2="70.3856" y2="33.9886" gradientUnits="userSpaceOnUse">
<stop stop-opacity="0.2"/>
<stop offset="1" stop-opacity="0"/>
</linearGradient>
</defs>
</svg>
